<svg xmlns="http://www.w3.org/2000/svg" xmlns:xlink="http://www.w3.org/1999/xlink" width="500" zoomAndPan="magnify" viewBox="0 0 375 374.999991" height="500" preserveAspectRatio="xMidYMid meet" version="1.0"><defs><clipPath id="92177e814f"><path d="M 40.53125 37.5 L 334.53125 37.5 L 334.53125 331.5 L 40.53125 331.5 Z M 40.53125 37.5 " clip-rule="nonzero"/></clipPath></defs><g clip-path="url(#92177e814f)"><path fill="#c2d952" d="M 334.460938 184.496094 L 331.695312 189.492188 L 334.105469 194.722656 L 330.992188 199.542969 L 333.050781 204.953125 L 329.640625 209.535156 L 331.285156 215.003906 L 327.523438 219.414062 L 328.816406 224.996094 L 324.761719 229.054688 L 325.640625 234.757812 L 321.292969 238.519531 L 321.761719 244.28125 L 317.234375 247.746094 L 317.292969 253.507812 L 312.472656 256.625 L 312.121094 262.386719 L 307.125 265.148438 L 306.417969 270.851562 L 301.1875 273.320312 L 300.070312 278.964844 L 294.71875 281.019531 L 293.191406 286.546875 L 287.726562 288.25 L 285.84375 293.660156 L 280.257812 295.011719 L 277.964844 300.300781 L 272.324219 301.183594 L 269.675781 306.296875 L 263.976562 306.828125 L 260.976562 311.765625 L 255.214844 311.882812 L 251.925781 316.585938 L 246.222656 316.292969 L 242.578125 320.761719 L 236.875 320.113281 L 232.9375 324.289062 L 227.292969 323.230469 L 223.058594 327.109375 L 217.535156 325.640625 L 213.007812 329.226562 L 207.601562 327.34375 L 202.839844 330.636719 L 197.546875 328.402344 L 192.609375 331.339844 L 187.496094 328.753906 L 182.378906 331.339844 L 177.441406 328.402344 L 172.152344 330.636719 L 167.390625 327.34375 L 161.980469 329.226562 L 157.457031 325.640625 L 151.929688 327.109375 L 147.695312 323.230469 L 142.054688 324.289062 L 138.113281 320.113281 L 132.414062 320.761719 L 128.769531 316.292969 L 123.066406 316.585938 L 119.714844 311.882812 L 114.011719 311.765625 L 111.015625 306.828125 L 105.3125 306.296875 L 102.667969 301.183594 L 97.023438 300.300781 L 94.730469 295.011719 L 89.144531 293.660156 L 87.265625 288.25 L 81.796875 286.546875 L 80.269531 281.019531 L 74.917969 278.90625 L 73.804688 273.320312 L 68.570312 270.851562 L 67.867188 265.148438 L 62.867188 262.328125 L 62.515625 256.625 L 57.695312 253.449219 L 57.753906 247.746094 L 53.226562 244.28125 L 53.699219 238.519531 L 49.347656 234.757812 L 50.230469 229.054688 L 46.171875 224.996094 L 47.464844 219.414062 L 43.703125 215.003906 L 45.351562 209.535156 L 41.941406 204.953125 L 44 199.542969 L 40.882812 194.722656 L 43.292969 189.492188 L 40.53125 184.496094 L 43.292969 179.4375 L 40.882812 174.207031 L 44 169.386719 L 41.941406 163.976562 L 45.351562 159.394531 L 43.703125 153.925781 L 47.464844 149.515625 L 46.171875 143.933594 L 50.230469 139.875 L 49.347656 134.171875 L 53.699219 130.410156 L 53.226562 124.648438 L 57.753906 121.183594 L 57.695312 115.480469 L 62.515625 112.304688 L 62.867188 106.542969 L 67.867188 103.78125 L 68.570312 98.078125 L 73.804688 95.609375 L 74.917969 89.964844 L 80.269531 87.910156 L 81.796875 82.382812 L 87.265625 80.679688 L 89.144531 75.269531 L 94.730469 73.917969 L 97.023438 68.628906 L 102.667969 67.746094 L 105.3125 62.632812 L 111.015625 62.101562 L 114.011719 57.164062 L 119.773438 57.046875 L 123.066406 52.34375 L 128.769531 52.636719 L 132.414062 48.167969 L 138.113281 48.816406 L 142.054688 44.640625 L 147.695312 45.699219 L 151.929688 41.820312 L 157.457031 43.289062 L 161.980469 39.703125 L 167.390625 41.585938 L 172.152344 38.292969 L 177.441406 40.527344 L 182.378906 37.589844 L 187.496094 40.175781 L 192.609375 37.589844 L 197.546875 40.527344 L 202.839844 38.292969 L 207.601562 41.585938 L 213.007812 39.703125 L 217.535156 43.289062 L 223.058594 41.820312 L 227.292969 45.699219 L 232.9375 44.640625 L 236.875 48.816406 L 242.578125 48.167969 L 246.222656 52.636719 L 251.925781 52.34375 L 255.273438 57.046875 L 260.976562 57.164062 L 263.976562 62.101562 L 269.675781 62.632812 L 272.324219 67.746094 L 277.964844 68.628906 L 280.257812 73.917969 L 285.84375 75.269531 L 287.726562 80.679688 L 293.191406 82.382812 L 294.71875 87.910156 L 300.070312 90.023438 L 301.1875 95.609375 L 306.417969 98.078125 L 307.125 103.78125 L 312.121094 106.601562 L 312.472656 112.304688 L 317.292969 115.480469 L 317.234375 121.183594 L 321.761719 124.648438 L 321.292969 130.410156 L 325.640625 134.171875 L 324.761719 139.875 L 328.816406 143.933594 L 327.523438 149.574219 L 331.285156 153.925781 L 329.640625 159.394531 L 333.050781 163.976562 L 330.992188 169.386719 L 334.105469 174.207031 L 331.695312 179.4375 Z M 334.460938 184.496094 " fill-opacity="1" fill-rule="nonzero"/></g><path fill="#ffed8e" d="M 329.226562 184.496094 C 329.226562 186.8125 329.171875 189.132812 329.058594 191.449219 C 328.941406 193.765625 328.773438 196.078125 328.546875 198.386719 C 328.316406 200.695312 328.035156 202.996094 327.695312 205.289062 C 327.351562 207.585938 326.957031 209.871094 326.503906 212.144531 C 326.050781 214.417969 325.542969 216.683594 324.980469 218.933594 C 324.417969 221.183594 323.796875 223.417969 323.125 225.636719 C 322.453125 227.855469 321.722656 230.058594 320.941406 232.242188 C 320.160156 234.425781 319.328125 236.589844 318.4375 238.734375 C 317.550781 240.875 316.613281 242.996094 315.621094 245.09375 C 314.628906 247.191406 313.585938 249.261719 312.492188 251.308594 C 311.398438 253.351562 310.253906 255.371094 309.0625 257.359375 C 307.871094 259.347656 306.628906 261.308594 305.339844 263.238281 C 304.054688 265.164062 302.71875 267.0625 301.335938 268.925781 C 299.953125 270.789062 298.527344 272.617188 297.054688 274.410156 C 295.585938 276.203125 294.070312 277.957031 292.511719 279.675781 C 290.953125 281.394531 289.355469 283.074219 287.714844 284.714844 C 286.074219 286.355469 284.394531 287.953125 282.675781 289.511719 C 280.957031 291.070312 279.203125 292.582031 277.410156 294.054688 C 275.617188 295.527344 273.789062 296.953125 271.925781 298.335938 C 270.0625 299.71875 268.167969 301.050781 266.238281 302.339844 C 264.308594 303.628906 262.351562 304.871094 260.359375 306.0625 C 258.371094 307.253906 256.351562 308.398438 254.308594 309.492188 C 252.261719 310.585938 250.191406 311.628906 248.09375 312.621094 C 245.996094 313.609375 243.875 314.550781 241.734375 315.4375 C 239.589844 316.324219 237.425781 317.160156 235.242188 317.941406 C 233.058594 318.722656 230.855469 319.449219 228.636719 320.125 C 226.417969 320.796875 224.183594 321.414062 221.933594 321.980469 C 219.683594 322.542969 217.421875 323.050781 215.144531 323.503906 C 212.871094 323.957031 210.585938 324.351562 208.292969 324.691406 C 205.996094 325.035156 203.695312 325.316406 201.386719 325.542969 C 199.078125 325.773438 196.765625 325.941406 194.449219 326.054688 C 192.132812 326.171875 189.8125 326.226562 187.496094 326.226562 C 185.175781 326.226562 182.855469 326.171875 180.539062 326.054688 C 178.222656 325.941406 175.910156 325.773438 173.601562 325.542969 C 171.292969 325.316406 168.992188 325.035156 166.699219 324.691406 C 164.402344 324.351562 162.117188 323.957031 159.84375 323.503906 C 157.570312 323.050781 155.304688 322.542969 153.054688 321.980469 C 150.804688 321.414062 148.570312 320.796875 146.351562 320.125 C 144.132812 319.449219 141.929688 318.722656 139.746094 317.941406 C 137.5625 317.160156 135.398438 316.324219 133.257812 315.4375 C 131.113281 314.550781 128.992188 313.609375 126.894531 312.621094 C 124.800781 311.628906 122.726562 310.585938 120.683594 309.492188 C 118.636719 308.398438 116.617188 307.253906 114.628906 306.0625 C 112.640625 304.871094 110.679688 303.628906 108.753906 302.339844 C 106.824219 301.050781 104.929688 299.71875 103.066406 298.335938 C 101.203125 296.953125 99.375 295.527344 97.582031 294.054688 C 95.789062 292.582031 94.03125 291.070312 92.3125 289.511719 C 90.59375 287.953125 88.914062 286.355469 87.273438 284.714844 C 85.632812 283.074219 84.035156 281.394531 82.476562 279.675781 C 80.921875 277.957031 79.40625 276.203125 77.933594 274.410156 C 76.460938 272.617188 75.035156 270.789062 73.652344 268.925781 C 72.273438 267.0625 70.9375 265.164062 69.648438 263.238281 C 68.359375 261.308594 67.117188 259.347656 65.925781 257.359375 C 64.734375 255.371094 63.589844 253.351562 62.496094 251.308594 C 61.402344 249.261719 60.363281 247.191406 59.371094 245.09375 C 58.378906 242.996094 57.4375 240.875 56.550781 238.734375 C 55.664062 236.589844 54.828125 234.425781 54.046875 232.242188 C 53.265625 230.058594 52.539062 227.855469 51.863281 225.636719 C 51.191406 223.417969 50.574219 221.183594 50.007812 218.933594 C 49.445312 216.683594 48.9375 214.417969 48.484375 212.144531 C 48.03125 209.871094 47.636719 207.585938 47.296875 205.289062 C 46.957031 202.996094 46.671875 200.695312 46.445312 198.386719 C 46.21875 196.078125 46.046875 193.765625 45.933594 191.449219 C 45.820312 189.132812 45.761719 186.8125 45.761719 184.496094 C 45.761719 182.175781 45.820312 179.855469 45.933594 177.539062 C 46.046875 175.222656 46.21875 172.910156 46.445312 170.601562 C 46.671875 168.292969 46.957031 165.992188 47.296875 163.699219 C 47.636719 161.402344 48.03125 159.117188 48.484375 156.84375 C 48.9375 154.570312 49.445312 152.304688 50.007812 150.054688 C 50.574219 147.804688 51.191406 145.570312 51.863281 143.351562 C 52.539062 141.132812 53.265625 138.929688 54.046875 136.746094 C 54.828125 134.5625 55.664062 132.398438 56.550781 130.253906 C 57.4375 128.113281 58.378906 125.992188 59.371094 123.894531 C 60.363281 121.796875 61.402344 119.726562 62.496094 117.683594 C 63.589844 115.636719 64.734375 113.617188 65.925781 111.628906 C 67.117188 109.640625 68.359375 107.679688 69.648438 105.75 C 70.9375 103.824219 72.273438 101.925781 73.652344 100.0625 C 75.035156 98.199219 76.460938 96.371094 77.933594 94.578125 C 79.40625 92.785156 80.921875 91.03125 82.476562 89.3125 C 84.035156 87.59375 85.632812 85.914062 87.273438 84.273438 C 88.914062 82.632812 90.59375 81.035156 92.3125 79.476562 C 94.03125 77.917969 95.789062 76.40625 97.582031 74.933594 C 99.375 73.460938 101.203125 72.035156 103.066406 70.652344 C 104.929688 69.273438 106.824219 67.9375 108.753906 66.648438 C 110.679688 65.359375 112.640625 64.117188 114.628906 62.925781 C 116.617188 61.734375 118.636719 60.589844 120.683594 59.496094 C 122.726562 58.402344 124.800781 57.359375 126.894531 56.371094 C 128.992188 55.378906 131.113281 54.4375 133.257812 53.550781 C 135.398438 52.664062 137.5625 51.828125 139.746094 51.046875 C 141.929688 50.265625 144.132812 49.539062 146.351562 48.863281 C 148.570312 48.191406 150.804688 47.574219 153.054688 47.007812 C 155.304688 46.445312 157.570312 45.9375 159.84375 45.484375 C 162.117188 45.03125 164.402344 44.636719 166.699219 44.296875 C 168.992188 43.953125 171.292969 43.671875 173.601562 43.445312 C 175.910156 43.214844 178.222656 43.046875 180.539062 42.933594 C 182.855469 42.816406 185.175781 42.761719 187.496094 42.761719 C 189.8125 42.761719 192.132812 42.816406 194.449219 42.933594 C 196.765625 43.046875 199.078125 43.214844 201.386719 43.445312 C 203.695312 43.671875 205.996094 43.953125 208.292969 44.296875 C 210.585938 44.636719 212.871094 45.03125 215.144531 45.484375 C 217.421875 45.9375 219.683594 46.445312 221.933594 47.007812 C 224.183594 47.574219 226.417969 48.191406 228.636719 48.863281 C 230.855469 49.539062 233.058594 50.265625 235.242188 51.046875 C 237.425781 51.828125 239.589844 52.664062 241.734375 53.550781 C 243.875 54.4375 245.996094 55.378906 248.09375 56.371094 C 250.191406 57.359375 252.261719 58.402344 254.308594 59.496094 C 256.351562 60.589844 258.371094 61.734375 260.359375 62.925781 C 262.351562 64.117188 264.308594 65.359375 266.238281 66.648438 C 268.167969 67.9375 270.0625 69.273438 271.925781 70.652344 C 273.789062 72.035156 275.617188 73.460938 277.410156 74.933594 C 279.203125 76.40625 280.957031 77.917969 282.675781 79.476562 C 284.394531 81.035156 286.074219 82.632812 287.714844 84.273438 C 289.355469 85.914062 290.953125 87.59375 292.511719 89.3125 C 294.070312 91.03125 295.585938 92.785156 297.054688 94.578125 C 298.527344 96.371094 299.953125 98.199219 301.335938 100.0625 C 302.71875 101.925781 304.054688 103.824219 305.339844 105.75 C 306.628906 107.679688 307.871094 109.640625 309.0625 111.628906 C 310.253906 113.617188 311.398438 115.636719 312.492188 117.683594 C 313.585938 119.726562 314.628906 121.796875 315.621094 123.894531 C 316.613281 125.992188 317.550781 128.113281 318.4375 130.253906 C 319.328125 132.398438 320.160156 134.5625 320.941406 136.746094 C 321.722656 138.929688 322.453125 141.132812 323.125 143.351562 C 323.796875 145.570312 324.417969 147.804688 324.980469 150.054688 C 325.542969 152.304688 326.050781 154.570312 326.503906 156.84375 C 326.957031 159.117188 327.351562 161.402344 327.695312 163.699219 C 328.035156 165.992188 328.316406 168.292969 328.546875 170.601562 C 328.773438 172.910156 328.941406 175.222656 329.058594 177.539062 C 329.171875 179.855469 329.226562 182.175781 329.226562 184.496094 Z M 329.226562 184.496094 " fill-opacity="1" fill-rule="nonzero"/><path fill="#fffcd5" d="M 229.878906 184.496094 C 229.878906 185.882812 229.8125 187.265625 229.675781 188.648438 C 229.539062 190.03125 229.335938 191.402344 229.066406 192.761719 C 228.792969 194.125 228.457031 195.46875 228.054688 196.796875 C 227.652344 198.125 227.183594 199.429688 226.652344 200.714844 C 226.121094 201.996094 225.527344 203.25 224.875 204.472656 C 224.21875 205.699219 223.507812 206.886719 222.738281 208.042969 C 221.964844 209.195312 221.140625 210.308594 220.257812 211.382812 C 219.378906 212.457031 218.445312 213.484375 217.464844 214.464844 C 216.484375 215.445312 215.457031 216.378906 214.382812 217.257812 C 213.308594 218.136719 212.195312 218.964844 211.042969 219.734375 C 209.886719 220.507812 208.699219 221.21875 207.476562 221.875 C 206.25 222.527344 204.996094 223.121094 203.714844 223.652344 C 202.433594 224.183594 201.125 224.652344 199.796875 225.054688 C 198.46875 225.457031 197.125 225.792969 195.761719 226.066406 C 194.402344 226.335938 193.03125 226.539062 191.648438 226.675781 C 190.269531 226.8125 188.882812 226.878906 187.496094 226.878906 C 186.105469 226.878906 184.722656 226.8125 183.339844 226.675781 C 181.957031 226.539062 180.585938 226.335938 179.226562 226.066406 C 177.863281 225.792969 176.519531 225.457031 175.191406 225.054688 C 173.863281 224.652344 172.558594 224.183594 171.273438 223.652344 C 169.992188 223.121094 168.738281 222.527344 167.515625 221.875 C 166.289062 221.21875 165.101562 220.507812 163.945312 219.734375 C 162.792969 218.964844 161.679688 218.136719 160.605469 217.257812 C 159.535156 216.378906 158.507812 215.445312 157.523438 214.464844 C 156.542969 213.484375 155.613281 212.457031 154.730469 211.382812 C 153.851562 210.308594 153.023438 209.195312 152.253906 208.042969 C 151.480469 206.886719 150.769531 205.699219 150.113281 204.472656 C 149.460938 203.25 148.867188 201.996094 148.335938 200.714844 C 147.804688 199.433594 147.339844 198.125 146.933594 196.796875 C 146.53125 195.46875 146.195312 194.125 145.925781 192.761719 C 145.652344 191.402344 145.449219 190.03125 145.3125 188.648438 C 145.179688 187.265625 145.109375 185.882812 145.109375 184.496094 C 145.109375 183.105469 145.179688 181.722656 145.3125 180.339844 C 145.449219 178.957031 145.652344 177.585938 145.925781 176.226562 C 146.195312 174.863281 146.53125 173.519531 146.933594 172.191406 C 147.339844 170.863281 147.804688 169.558594 148.335938 168.273438 C 148.867188 166.992188 149.460938 165.738281 150.113281 164.515625 C 150.769531 163.289062 151.480469 162.101562 152.253906 160.945312 C 153.023438 159.792969 153.851562 158.679688 154.730469 157.605469 C 155.613281 156.53125 156.542969 155.503906 157.523438 154.523438 C 158.507812 153.542969 159.535156 152.609375 160.605469 151.730469 C 161.679688 150.851562 162.792969 150.023438 163.945312 149.253906 C 165.101562 148.480469 166.289062 147.769531 167.515625 147.113281 C 168.738281 146.460938 169.992188 145.867188 171.273438 145.335938 C 172.558594 144.804688 173.863281 144.335938 175.191406 143.933594 C 176.519531 143.53125 177.863281 143.195312 179.226562 142.925781 C 180.585938 142.652344 181.957031 142.449219 183.339844 142.3125 C 184.722656 142.175781 186.105469 142.109375 187.496094 142.109375 C 188.882812 142.109375 190.269531 142.175781 191.648438 142.3125 C 193.03125 142.449219 194.402344 142.652344 195.761719 142.925781 C 197.125 143.195312 198.46875 143.53125 199.796875 143.933594 C 201.125 144.335938 202.433594 144.804688 203.714844 145.335938 C 204.996094 145.867188 206.25 146.460938 207.476562 147.113281 C 208.699219 147.769531 209.886719 148.480469 211.042969 149.253906 C 212.195312 150.023438 213.308594 150.851562 214.382812 151.730469 C 215.457031 152.609375 216.484375 153.542969 217.464844 154.523438 C 218.445312 155.503906 219.378906 156.53125 220.257812 157.605469 C 221.140625 158.679688 221.964844 159.792969 222.738281 160.945312 C 223.507812 162.101562 224.21875 163.289062 224.875 164.515625 C 225.527344 165.738281 226.121094 166.992188 226.652344 168.273438 C 227.183594 169.558594 227.652344 170.863281 228.054688 172.191406 C 228.457031 173.519531 228.792969 174.863281 229.066406 176.226562 C 229.335938 177.585938 229.539062 178.957031 229.675781 180.339844 C 229.8125 181.722656 229.878906 183.105469 229.878906 184.496094 Z M 229.878906 184.496094 " fill-opacity="1" fill-rule="nonzero"/><path fill="#ff914d" d="M 205.542969 240.636719 C 209.070312 244.398438 211.480469 248.980469 213.597656 253.625 C 217.417969 261.972656 220.414062 270.851562 220.472656 280.082031 C 220.53125 289.25 217.300781 298.773438 210.363281 304.710938 C 203.367188 310.648438 192.375 312.175781 184.910156 306.886719 C 178.382812 302.300781 175.738281 293.953125 174.855469 286.015625 C 173.152344 271.261719 182.144531 215.652344 205.542969 240.636719 Z M 228 262.796875 C 229.820312 267.96875 231.820312 273.496094 236.289062 276.671875 C 242.402344 281.078125 251.511719 279.433594 256.863281 274.203125 C 262.210938 268.96875 264.210938 260.976562 263.800781 253.449219 C 262.800781 237.695312 251.042969 223.175781 235.816406 218.941406 C 231.9375 217.882812 227.703125 217.414062 223.824219 218.53125 C 214.359375 221.234375 215.59375 227.289062 218.179688 234.636719 C 221.472656 243.984375 224.707031 253.390625 228 262.796875 Z M 272.851562 223.117188 C 274.851562 224.292969 276.847656 225.527344 279.082031 226.171875 C 286.078125 228.171875 293.898438 223.527344 296.71875 216.828125 C 299.539062 210.125 298.011719 202.128906 293.898438 196.074219 C 289.839844 190.019531 283.550781 185.789062 276.96875 182.730469 C 268.5625 178.851562 258.742188 176.734375 250.042969 179.910156 C 243.164062 182.4375 232.523438 194.136719 238.050781 202.128906 C 240.871094 206.1875 250.453125 209.65625 254.746094 212.242188 C 260.742188 215.886719 266.738281 219.472656 272.792969 223.117188 Z M 258.097656 159.332031 C 264.855469 158.746094 271.675781 160.214844 278.496094 160.273438 C 285.316406 160.332031 292.78125 158.628906 296.835938 153.160156 C 301.539062 146.871094 300.128906 137.816406 296.367188 130.941406 C 289.136719 117.714844 273.558594 109.367188 258.566406 111.1875 C 243.578125 113.011719 230.292969 125.179688 227.644531 140.050781 C 226.351562 147.164062 227.410156 162.273438 234.757812 166.445312 C 241.519531 170.328125 250.75 160.039062 258.097656 159.332031 Z M 213.183594 132.175781 C 218.179688 130.175781 222.53125 126.707031 226.292969 122.886719 C 231.054688 118.066406 234.992188 112.480469 238.109375 106.484375 C 240.226562 102.3125 241.929688 97.726562 241.929688 93.023438 C 241.929688 88.320312 239.875 83.441406 235.875 80.914062 C 231.40625 78.089844 225.53125 78.855469 220.589844 80.621094 C 210.773438 84.207031 202.484375 91.730469 197.957031 101.136719 C 191.199219 115.304688 191.023438 141.167969 213.242188 132.175781 Z M 180.265625 65.980469 C 170.683594 58.691406 150.105469 65.570312 146.519531 76.621094 C 145.285156 80.265625 145.640625 84.265625 145.992188 88.085938 C 146.636719 95.140625 147.226562 102.195312 147.875 109.191406 C 148.34375 114.773438 148.929688 120.535156 151.519531 125.53125 C 154.105469 130.527344 159.277344 134.585938 164.863281 134.171875 C 169.449219 133.820312 173.445312 130.46875 175.796875 126.472656 C 178.148438 122.476562 179.148438 117.890625 180.085938 113.363281 C 182.4375 102.3125 191.492188 74.445312 180.324219 65.921875 Z M 127.121094 116.773438 C 124.183594 111.835938 120.714844 105.542969 114.425781 104.488281 C 101.726562 102.429688 93.144531 130.351562 88.558594 139.171875 C 86.5 143.050781 84.441406 147.164062 84.5 151.574219 C 84.621094 157.042969 88.207031 161.980469 92.847656 164.976562 C 97.433594 167.976562 102.960938 169.210938 108.367188 170.03125 C 115.601562 171.148438 123.183594 171.503906 130.121094 169.152344 C 137.054688 166.800781 143.289062 161.332031 144.816406 154.160156 C 146.226562 147.460938 143.464844 140.582031 139.761719 134.878906 C 135.703125 128.707031 130.941406 123.121094 127.179688 116.773438 Z M 92.730469 197.542969 C 87.207031 203.304688 83.503906 211.007812 83.621094 219 C 83.738281 226.9375 88.027344 234.992188 95.082031 238.636719 C 101.195312 241.808594 108.605469 241.515625 115.128906 239.339844 C 131.414062 233.992188 142.816406 216.589844 141.289062 199.542969 C 138.761719 171.445312 105.136719 184.730469 92.789062 197.542969 Z M 133.117188 242.457031 C 126.59375 246.511719 120.832031 252.273438 118.304688 259.503906 C 115.777344 266.734375 116.953125 275.554688 122.417969 280.902344 C 127.121094 285.488281 133.941406 286.957031 140.40625 288.191406 C 146.460938 289.367188 153.515625 290.308594 158.160156 286.253906 C 160.980469 283.785156 162.15625 280.019531 163.273438 276.433594 C 165.214844 270.144531 167.097656 263.796875 169.035156 257.507812 C 170.859375 251.511719 172.679688 245.042969 170.859375 239.046875 C 165.390625 221.410156 142.230469 236.8125 133.117188 242.398438 Z M 133.117188 242.457031 " fill-opacity="1" fill-rule="nonzero"/><path fill="#fffcd5" d="M 212.183594 283.785156 C 212.125 287.191406 211.480469 290.71875 209.480469 293.425781 C 207.480469 296.128906 203.835938 297.890625 200.605469 296.835938 C 198.078125 296.011719 196.253906 293.601562 195.429688 291.074219 C 194.609375 288.546875 194.609375 285.78125 194.609375 283.136719 C 194.609375 280.082031 194.609375 277.023438 195.429688 274.085938 C 196.253906 271.144531 197.839844 268.324219 200.429688 266.675781 C 210.65625 260.210938 212.242188 277.550781 212.125 283.726562 Z M 233.996094 245.75 C 234.347656 250.570312 235.171875 255.625 238.050781 259.503906 C 240.929688 263.386719 246.632812 265.558594 250.867188 263.207031 C 253.277344 261.855469 254.804688 259.328125 255.570312 256.742188 C 256.980469 252.097656 256.15625 246.808594 253.453125 242.75 C 247.574219 233.875 232.9375 231.757812 233.996094 245.808594 Z M 276.027344 210.417969 C 276.730469 211.476562 277.261719 212.59375 278.023438 213.59375 C 278.789062 214.59375 279.847656 215.472656 281.082031 215.59375 C 283.257812 215.886719 285.195312 213.652344 285.257812 211.476562 C 285.316406 209.300781 284.082031 207.246094 282.550781 205.597656 C 279.90625 202.777344 276.261719 200.894531 272.441406 200.25 C 270.265625 199.894531 262.800781 199.25 262.859375 203.128906 C 262.917969 207.007812 265.738281 205.1875 267.5625 205.539062 C 271.03125 206.1875 273.96875 207.421875 276.027344 210.476562 Z M 276.4375 145.695312 C 279.199219 145.695312 282.082031 145.34375 284.199219 143.578125 C 286.3125 141.816406 287.253906 138.40625 285.550781 136.230469 C 284.492188 134.878906 282.726562 134.292969 281.082031 133.820312 C 277.320312 132.761719 273.441406 132.058594 269.558594 132.351562 C 265.914062 132.644531 262.152344 133.9375 259.507812 136.523438 C 257.683594 138.289062 254.570312 143.226562 256.628906 145.8125 C 258.683594 148.398438 261.859375 146.636719 263.859375 146.285156 C 268.207031 145.519531 272.027344 145.578125 276.4375 145.636719 Z M 214.832031 110.425781 C 214.773438 112.714844 215.300781 115.363281 217.359375 116.480469 C 219.179688 117.476562 221.53125 116.832031 223.117188 115.480469 C 224.707031 114.128906 225.589844 112.1875 226.527344 110.304688 C 227.703125 107.777344 228.9375 105.132812 228.761719 102.3125 C 228.46875 97.609375 224 94.84375 220.414062 98.078125 C 217.0625 101.136719 215.066406 105.898438 214.890625 110.425781 Z M 173.5625 87.671875 C 172.976562 85.203125 172.914062 83.5 170.269531 83.265625 C 168.273438 83.089844 166.097656 84.792969 165.039062 86.261719 C 163.511719 88.378906 162.921875 91.023438 162.746094 93.609375 C 162.453125 98.136719 163.214844 102.78125 164.921875 106.957031 C 165.804688 109.070312 167.390625 111.421875 169.683594 111.363281 C 171.09375 111.363281 172.328125 110.363281 173.09375 109.1875 C 173.855469 108.015625 174.089844 106.601562 174.328125 105.191406 C 175.207031 99.371094 174.914062 93.375 173.5625 87.613281 Z M 118.65625 128 C 116.597656 124.0625 109.132812 121.300781 108.78125 128 C 108.722656 129.351562 109.074219 130.707031 109.367188 132 C 109.957031 134.292969 110.542969 136.582031 111.132812 138.875 C 111.660156 140.992188 112.25 143.167969 113.25 145.109375 C 114.246094 147.046875 115.777344 148.8125 117.832031 149.691406 C 119.890625 150.574219 122.652344 150.222656 123.886719 148.339844 C 124.476562 147.460938 124.652344 146.34375 124.710938 145.285156 C 125.183594 138.933594 121.417969 133.351562 118.597656 127.941406 Z M 107.191406 228.113281 C 108.722656 229.113281 110.601562 229.40625 112.425781 229.289062 C 116.070312 229.054688 119.597656 227.230469 121.949219 224.410156 C 127.003906 218.296875 125.945312 208.125 116.421875 210.066406 C 109.78125 211.417969 98.140625 222 107.191406 228.054688 Z M 139.585938 247.042969 C 136.644531 248.277344 134.765625 251.214844 133.707031 254.214844 C 132.234375 258.269531 131.824219 262.796875 132.648438 267.03125 C 132.941406 268.441406 133.351562 269.910156 134.351562 270.910156 C 135.46875 272.144531 137.234375 272.613281 138.878906 272.613281 C 142.054688 272.613281 145.226562 270.851562 146.875 268.085938 C 148.578125 265.148438 148.578125 261.5625 148.167969 258.210938 C 147.519531 252.746094 148.34375 243.222656 139.585938 246.984375 Z M 139.585938 247.042969 " fill-opacity="1" fill-rule="nonzero"/></svg>